<svg width="700" height="700" viewBox="0 0 700 700" fill="none" xmlns="http://www.w3.org/2000/svg">
<path d="M350 700C543.3 700 700 543.3 700 350C700 156.7 543.3 0 350 0C156.7 0 0 156.7 0 350C0 543.3 156.7 700 350 700Z" fill="black"/>
<path d="M435.555 530.833C419.533 561.827 388.305 581.933 353.888 583.333C316.827 584.81 281.827 564.316 264.444 530.833C273.699 523.716 304.655 501.666 349.999 501.666C395.344 501.666 426.299 523.716 435.555 530.833Z" fill="#EDEDED"/>
<path d="M350 567.776C283.889 572.56 262.928 527.682 262.928 527.682C115.15 473.238 142.372 356.571 142.372 356.571C142.372 356.571 72.3722 239.904 91.8166 212.682C134.983 152.21 235.705 220.46 235.705 220.46C274.594 185.46 350 194.443 350 194.443C350 194.443 423.889 186.665 462.778 221.665C462.778 221.665 563.5 153.415 606.667 213.888C626.111 241.11 556.111 357.776 556.111 357.776C556.111 357.776 583.333 474.443 435.555 528.888C435.555 528.888 416.111 572.56 350 567.776Z" fill="#7E2D11"/>
<mask id="mask0_74_157" style="mask-type:luminance" maskUnits="userSpaceOnUse" x="88" y="187" width="523" height="382">
<path d="M350 567.774C283.889 572.558 262.928 527.68 262.928 527.68C115.15 473.236 142.372 356.569 142.372 356.569C142.372 356.569 72.3722 239.902 91.8166 212.68C134.983 152.208 235.705 220.458 235.705 220.458C274.594 185.458 350 194.441 350 194.441C350 194.441 423.889 186.663 462.778 221.663C462.778 221.663 563.5 153.413 606.667 213.886C626.111 241.108 556.111 357.774 556.111 357.774C556.111 357.774 583.333 474.441 435.555 528.886C435.555 528.886 416.111 572.558 350 567.774Z" fill="white"/>
</mask>
<g mask="url(#mask0_74_157)">
<path d="M387.722 518.543C407.517 424.548 407.011 401.06 402.733 401.215C398.845 401.371 381.189 448.737 369.522 449.165C357.856 449.593 354.628 360.304 350.583 360.382C346.5 360.421 349.222 448.115 334.561 450.487C322.933 452.393 307.922 399.543 301.545 401.137C296.995 402.304 298.472 431.004 313.756 517.415" fill="#A95835"/>
</g>
<mask id="mask1_74_157" style="mask-type:luminance" maskUnits="userSpaceOnUse" x="88" y="187" width="523" height="382">
<path d="M350 567.774C283.889 572.558 262.928 527.68 262.928 527.68C115.15 473.236 142.372 356.569 142.372 356.569C142.372 356.569 72.3722 239.902 91.8166 212.68C134.983 152.208 235.705 220.458 235.705 220.458C274.594 185.458 350 194.441 350 194.441C350 194.441 423.889 186.663 462.778 221.663C462.778 221.663 563.5 153.413 606.667 213.886C626.111 241.108 556.111 357.774 556.111 357.774C556.111 357.774 583.333 474.441 435.555 528.886C435.555 528.886 416.111 572.558 350 567.774Z" fill="white"/>
</mask>
<g mask="url(#mask1_74_157)">
<path d="M443.333 559.997C447.222 602.775 400.672 637.775 348.055 637.775C295.438 637.775 245.077 602.269 252.777 559.997C260.555 517.219 297.499 458.886 349.999 458.886C402.616 458.886 439.444 517.219 443.333 559.997Z" fill="white"/>
</g>
<mask id="mask2_74_157" style="mask-type:luminance" maskUnits="userSpaceOnUse" x="88" y="187" width="523" height="382">
<path d="M350 567.774C283.889 572.558 262.928 527.68 262.928 527.68C115.15 473.236 142.372 356.569 142.372 356.569C142.372 356.569 72.3722 239.902 91.8166 212.68C134.983 152.208 235.705 220.458 235.705 220.458C274.594 185.458 350 194.441 350 194.441C350 194.441 423.889 186.663 462.778 221.663C462.778 221.663 563.5 153.413 606.667 213.886C626.111 241.108 556.111 357.774 556.111 357.774C556.111 357.774 583.333 474.441 435.555 528.886C435.555 528.886 416.111 572.558 350 567.774Z" fill="white"/>
</mask>
<g mask="url(#mask2_74_157)">
<path d="M221.433 206.264C237.338 216.842 246.127 235.781 238.077 253.825C215.716 303.914 139.688 357.775 139.688 357.775C-27.2616 107.136 151.277 159.597 221.433 206.264Z" fill="white"/>
<mask id="mask3_74_157" style="mask-type:luminance" maskUnits="userSpaceOnUse" x="70" y="167" width="172" height="191">
<path d="M221.433 206.264C237.338 216.842 246.127 235.781 238.077 253.825C215.716 303.914 139.688 357.775 139.688 357.775C-27.2616 107.136 151.277 159.597 221.433 206.264Z" fill="white"/>
</mask>
<g mask="url(#mask3_74_157)">
<path d="M247.178 262.496C247.178 262.496 111.067 188.607 111.067 227.496C111.067 268.096 161.622 344.163 161.622 344.163L247.178 262.496Z" fill="#7D4E24"/>
</g>
</g>
<mask id="mask4_74_157" style="mask-type:luminance" maskUnits="userSpaceOnUse" x="88" y="187" width="523" height="382">
<path d="M350 567.774C283.889 572.558 262.928 527.68 262.928 527.68C115.15 473.236 142.372 356.569 142.372 356.569C142.372 356.569 72.3722 239.902 91.8166 212.68C134.983 152.208 235.705 220.458 235.705 220.458C274.594 185.458 350 194.441 350 194.441C350 194.441 423.889 186.663 462.778 221.663C462.778 221.663 563.5 153.413 606.667 213.886C626.111 241.108 556.111 357.774 556.111 357.774C556.111 357.774 583.333 474.441 435.555 528.886C435.555 528.886 416.111 572.558 350 567.774Z" fill="white"/>
</mask>
<g mask="url(#mask4_74_157)">
<path d="M474.561 209.687C458.888 221.664 449.983 238.853 457.994 256.664C480.238 306.17 556.072 357.776 556.072 357.776C722.244 110.209 541.022 158.82 474.561 209.687Z" fill="white"/>
<mask id="mask5_74_157" style="mask-type:luminance" maskUnits="userSpaceOnUse" x="454" y="168" width="171" height="190">
<path d="M474.561 209.687C458.888 221.664 449.983 238.853 457.994 256.664C480.238 306.17 556.072 357.776 556.072 357.776C722.244 110.209 541.022 158.82 474.561 209.687Z" fill="white"/>
</mask>
<g mask="url(#mask5_74_157)">
<path d="M451.11 268.331C451.11 268.331 587.221 194.442 587.221 233.331C587.221 273.931 536.665 349.998 536.665 349.998L451.11 268.331Z" fill="#7D4E24"/>
</g>
</g>
<mask id="mask6_74_157" style="mask-type:luminance" maskUnits="userSpaceOnUse" x="88" y="187" width="523" height="382">
<path d="M350 567.774C283.889 572.558 262.928 527.68 262.928 527.68C115.15 473.236 142.372 356.569 142.372 356.569C142.372 356.569 72.3722 239.902 91.8166 212.68C134.983 152.208 235.705 220.458 235.705 220.458C274.594 185.458 350 194.441 350 194.441C350 194.441 423.889 186.663 462.778 221.663C462.778 221.663 563.5 153.413 606.667 213.886C626.111 241.108 556.111 357.774 556.111 357.774C556.111 357.774 583.333 474.441 435.555 528.886C435.555 528.886 416.111 572.558 350 567.774Z" fill="white"/>
</mask>
<g mask="url(#mask6_74_157)">
<path d="M470.556 412.219C466.667 412.219 533.401 481.985 453.367 528.769L548.334 474.441C548.334 474.441 538.456 412.219 470.556 412.219Z" fill="#CBBBA0"/>
</g>
<mask id="mask7_74_157" style="mask-type:luminance" maskUnits="userSpaceOnUse" x="88" y="187" width="523" height="382">
<path d="M350 567.774C283.889 572.558 262.928 527.68 262.928 527.68C115.15 473.236 142.372 356.569 142.372 356.569C142.372 356.569 72.3722 239.902 91.8166 212.68C134.983 152.208 235.705 220.458 235.705 220.458C274.594 185.458 350 194.441 350 194.441C350 194.441 423.889 186.663 462.778 221.663C462.778 221.663 563.5 153.413 606.667 213.886C626.111 241.108 556.111 357.774 556.111 357.774C556.111 357.774 583.333 474.441 435.555 528.886C435.555 528.886 416.111 572.558 350 567.774Z" fill="white"/>
</mask>
<g mask="url(#mask7_74_157)">
<path d="M227.89 412.957C231.778 412.957 165.006 482.724 245.078 529.507L150.112 475.179C150.112 475.179 159.951 412.957 227.89 412.957Z" fill="#CBBBA0"/>
</g>
<mask id="mask8_74_157" style="mask-type:luminance" maskUnits="userSpaceOnUse" x="88" y="187" width="523" height="382">
<path d="M350 567.774C283.889 572.558 262.928 527.68 262.928 527.68C115.15 473.236 142.372 356.569 142.372 356.569C142.372 356.569 72.3722 239.902 91.8166 212.68C134.983 152.208 235.705 220.458 235.705 220.458C274.594 185.458 350 194.441 350 194.441C350 194.441 423.889 186.663 462.778 221.663C462.778 221.663 563.5 153.413 606.667 213.886C626.111 241.108 556.111 357.774 556.111 357.774C556.111 357.774 583.333 474.441 435.555 528.886C435.555 528.886 416.111 572.558 350 567.774Z" fill="white"/>
</mask>
<g mask="url(#mask8_74_157)">
<path d="M155.244 478.136C155.244 478.136 81.6663 505.552 108.889 536.663C108.889 536.663 116.005 509.014 155.244 478.136Z" fill="#CBBBA0"/>
</g>
<mask id="mask9_74_157" style="mask-type:luminance" maskUnits="userSpaceOnUse" x="88" y="187" width="523" height="382">
<path d="M350 567.774C283.889 572.558 262.928 527.68 262.928 527.68C115.15 473.236 142.372 356.569 142.372 356.569C142.372 356.569 72.3722 239.902 91.8166 212.68C134.983 152.208 235.705 220.458 235.705 220.458C274.594 185.458 350 194.441 350 194.441C350 194.441 423.889 186.663 462.778 221.663C462.778 221.663 563.5 153.413 606.667 213.886C626.111 241.108 556.111 357.774 556.111 357.774C556.111 357.774 583.333 474.441 435.555 528.886C435.555 528.886 416.111 572.558 350 567.774Z" fill="white"/>
</mask>
<g mask="url(#mask9_74_157)">
<path d="M224.155 445.236C224.155 445.236 165.472 501.897 221.161 513.292C221.161 513.292 203.894 478.409 224.155 445.236Z" fill="#CBBBA0"/>
</g>
<mask id="mask10_74_157" style="mask-type:luminance" maskUnits="userSpaceOnUse" x="88" y="187" width="523" height="382">
<path d="M350 567.774C283.889 572.558 262.928 527.68 262.928 527.68C115.15 473.236 142.372 356.569 142.372 356.569C142.372 356.569 72.3722 239.902 91.8166 212.68C134.983 152.208 235.705 220.458 235.705 220.458C274.594 185.458 350 194.441 350 194.441C350 194.441 423.889 186.663 462.778 221.663C462.778 221.663 563.5 153.413 606.667 213.886C626.111 241.108 556.111 357.774 556.111 357.774C556.111 357.774 583.333 474.441 435.555 528.886C435.555 528.886 416.111 572.558 350 567.774Z" fill="white"/>
</mask>
<g mask="url(#mask10_74_157)">
<path d="M472.149 445.003C472.149 445.003 530.833 501.664 475.144 513.058C475.144 513.058 492.372 478.175 472.149 445.003Z" fill="#CBBBA0"/>
</g>
<mask id="mask11_74_157" style="mask-type:luminance" maskUnits="userSpaceOnUse" x="88" y="187" width="523" height="382">
<path d="M350 567.774C283.889 572.558 262.928 527.68 262.928 527.68C115.15 473.236 142.372 356.569 142.372 356.569C142.372 356.569 72.3722 239.902 91.8166 212.68C134.983 152.208 235.705 220.458 235.705 220.458C274.594 185.458 350 194.441 350 194.441C350 194.441 423.889 186.663 462.778 221.663C462.778 221.663 563.5 153.413 606.667 213.886C626.111 241.108 556.111 357.774 556.111 357.774C556.111 357.774 583.333 474.441 435.555 528.886C435.555 528.886 416.111 572.558 350 567.774Z" fill="white"/>
</mask>
<g mask="url(#mask11_74_157)">
<path d="M318.889 178.887C289.956 278.014 290.345 300.648 299.445 295.553C302.828 293.648 322.778 248.887 334.445 248.887C346.112 248.887 345.956 338.214 350.001 338.331C354.084 338.448 354.706 250.714 369.445 248.887C381.112 247.448 394.139 300.803 400.556 299.442C405.184 298.47 404.756 269.692 392.778 182.776" fill="#A95835"/>
</g>
<path d="M355.523 553.232L366.878 538.143C367.695 537.054 368.861 536.315 370.145 535.965C378.972 533.671 367.306 528.926 362.678 528.887L336.7 528.771C332.034 528.732 319.589 533.437 329.117 535.81C330.439 536.16 331.645 536.937 332.461 538.026L343.661 553.193C346.617 557.16 352.528 557.199 355.523 553.232Z" fill="#432918"/>
<path d="M403.697 444.289C403.82 443.928 404.001 443.418 404.242 442.787C404.755 441.443 405.541 439.552 406.629 437.375C408.809 433.013 412.18 427.543 416.958 423.019C421.728 418.503 427.875 414.95 435.642 414.341C443.234 413.746 452.502 415.954 463.691 423.048C463.492 423.387 463.23 423.825 462.908 424.346C462.083 425.682 460.866 427.562 459.298 429.728C456.157 434.066 451.63 439.522 446.061 444.048C440.487 448.578 433.936 452.124 426.734 452.759C419.713 453.379 411.94 451.243 403.697 444.289Z" fill="black" stroke="#CBBBA0" stroke-width="2" stroke-miterlimit="10"/>
<path d="M235.264 422.638C234.942 422.117 234.681 421.679 234.481 421.34C245.67 414.246 254.938 412.038 262.53 412.633C270.298 413.242 276.444 416.795 281.214 421.311C285.992 425.835 289.363 431.305 291.543 435.667C292.631 437.844 293.417 439.735 293.93 441.079C294.171 441.71 294.352 442.22 294.475 442.582C286.232 449.536 278.459 451.671 271.438 451.051C264.236 450.416 257.685 446.87 252.111 442.34C246.542 437.814 242.016 432.358 238.875 428.02C237.306 425.854 236.089 423.974 235.264 422.638Z" fill="black" stroke="#CBBBA0" stroke-width="2" stroke-miterlimit="10"/>
<path d="M294.778 410.393C299.134 411.676 303.1 407.476 301 403.782C292.911 389.432 276.073 365.282 260.323 379.126C244.3 393.204 276.656 405.104 294.778 410.393Z" fill="#CBBBA0"/>
<path d="M411.094 410.122C406.738 411.406 402.771 407.206 404.871 403.511C412.96 389.161 429.799 365.011 445.549 378.856C461.61 392.934 429.216 404.833 411.094 410.122Z" fill="#CBBBA0"/>
<path d="M350 556.11V567.777" stroke="#432918" stroke-miterlimit="10"/>
<path d="M257.172 434.662C269.695 434.662 269.695 415.218 257.172 415.218C244.689 415.218 244.65 434.662 257.172 434.662Z" fill="white"/>
<path d="M426.417 441.039C438.939 441.039 438.939 421.595 426.417 421.595C413.895 421.595 413.895 441.039 426.417 441.039Z" fill="white"/>
<path d="M441.933 430.695C444.266 430.695 448.233 429.956 449.361 427.545C450.411 425.25 448.466 423.967 446.25 423.967C443.916 423.967 439.95 424.706 438.822 427.117C437.733 429.372 439.716 430.695 441.933 430.695Z" fill="white"/>
<path d="M271.911 430.614C274.283 430.614 278.172 429.914 279.3 427.426C280.35 425.131 278.405 423.653 276.111 423.653C273.738 423.653 269.85 424.353 268.722 426.842C267.711 429.137 269.655 430.614 271.911 430.614Z" fill="white"/>
</svg>
