<svg width="518" height="518" viewBox="0 0 518 518" fill="none" xmlns="http://www.w3.org/2000/svg">
<path fill-rule="evenodd" clip-rule="evenodd" d="M0 21C0 9.40202 9.40202 0 21 0H179C183.418 0 187 3.58172 187 8C187 12.4183 183.418 16 179 16H37C25.402 16 16 25.402 16 37V179C16 183.418 12.4183 187 8 187C3.58172 187 0 183.418 0 179V21ZM8 330C3.58172 330 0 333.582 0 338V497C0 508.598 9.40202 518 21 518H179C183.418 518 187 514.418 187 510C187 505.582 183.418 502 179 502H37C25.402 502 16 492.598 16 481V338C16 333.582 12.4183 330 8 330ZM510 330C505.582 330 502 333.582 502 338V481C502 492.598 492.598 502 481 502H338C333.582 502 330 505.582 330 510C330 514.418 333.582 518 338 518H497C508.598 518 518 508.598 518 497V338C518 333.582 514.418 330 510 330ZM510 187C514.418 187 518 183.418 518 179V21C518 9.40202 508.598 0 497 0H338C333.582 0 330 3.58172 330 8C330 12.4183 333.582 16 338 16H481C492.598 16 502 25.402 502 37V179C502 183.418 505.582 187 510 187Z" fill="#D9D9D9"/>
</svg>
